PathFileType	4	(X/Y/Z)	C:\Users\Basilio\Documents\Thesis Gigler\squatting_fais\c3dfiles\041\SJ_pre5\markers_experimental.trc
DataRate	CameraRate	NumFrames	NumMarkers	Units	OrigDataRate	OrigDataStartFrame	OrigNumFrames
200.000000	200.000000	4	62	mm	200.000000	564	1505
Frame#	Time	FHD			LBHD			RBHD			C7			T10			CLAV			LSHO			LUUPA			LMUPA			LDUPA			LLEP			LMEP			LRAD			LUL			LRFIN			RSHO			RUPA1			RMUPA			RDUPA			RLEP			RMEP			RRAD			RUL			RUFIN			LASI			RASI			USACR			LSACR			RSACR			LTHI1			LTHI2			LTHI3			LTHI4			LLFC			LMFC			LTIB1			LTIB2			LTIB3			LTIB4			LLMAL			LMMAL			LHEE			LMT1			LMT2			LMT5			RTHI			RTHI2			RTHI3			RTHI4			RLFC			RMFC			RTIB1			RTIB2			RTIB3			RTIB4			RLMAL			RMMAL			RHEE			RMT1			RMT2			RMT5			*61			
		X1	Y1	Z1	X2	Y2	Z2	X3	Y3	Z3	X4	Y4	Z4	X5	Y5	Z5	X6	Y6	Z6	X7	Y7	Z7	X8	Y8	Z8	X9	Y9	Z9	X10	Y10	Z10	X11	Y11	Z11	X12	Y12	Z12	X13	Y13	Z13	X14	Y14	Z14	X15	Y15	Z15	X16	Y16	Z16	X17	Y17	Z17	X18	Y18	Z18	X19	Y19	Z19	X20	Y20	Z20	X21	Y21	Z21	X22	Y22	Z22	X23	Y23	Z23	X24	Y24	Z24	X25	Y25	Z25	X26	Y26	Z26	X27	Y27	Z27	X28	Y28	Z28	X29	Y29	Z29	X30	Y30	Z30	X31	Y31	Z31	X32	Y32	Z32	X33	Y33	Z33	X34	Y34	Z34	X35	Y35	Z35	X36	Y36	Z36	X37	Y37	Z37	X38	Y38	Z38	X39	Y39	Z39	X40	Y40	Z40	X41	Y41	Z41	X42	Y42	Z42	X43	Y43	Z43	X44	Y44	Z44	X45	Y45	Z45	X46	Y46	Z46	X47	Y47	Z47	X48	Y48	Z48	X49	Y49	Z49	X50	Y50	Z50	X51	Y51	Z51	X52	Y52	Z52	X53	Y53	Z53	X54	Y54	Z54	X55	Y55	Z55	X56	Y56	Z56	X57	Y57	Z57	X58	Y58	Z58	X59	Y59	Z59	X60	Y60	Z60	X61	Y61	Z61	X62	Y62	Z62	

565	2.82	-42.87492752075196	1326.204833984375	-944.4144287109377	-220.553695678711	1257.205322265625	-1016.559448242188	-198.3078155517579	1261.892211914063	-864.3278808593752	-274.4799804687501	1173.510986328125	-951.0733642578127	-484.5328674316407	951.8980712890627	-946.787048339844	-164.0544128417969	1038.8720703125	-947.2624511718752	-193.8707580566407	1116.162353515625	-1118.245483398438	-310.0520019531251	1046.030151367188	-1263.331298828125	-325.1584777832032	999.698669433594	-1263.113525390625	-359.9300231933594	1022.648193359375	-1306.831909179688	-399.6447143554689	996.740905761719	-1333.204833984375	-471.134490966797	1015.384887695313	-1276.898681640625	-482.3995971679689	818.9963378906252	-1148.285522460938	-502.1407470703126	770.3217773437502	-1203.22607421875	-455.8197631835939	775.9403076171877	-1109.646850585938	-183.5089111328125	1114.33837890625	-782.2313232421877	-286.3930358886719	1034.828369140625	-602.8041992187501	-275.8108825683594	986.184509277344	-613.2943115234376	-310.6076049804688	977.3474121093752	-567.3892211914064	-338.3115539550782	937.4868164062502	-549.6673583984376	-418.1340332031251	976.6494140625002	-582.4713134765626	-484.4930419921876	811.2883300781252	-724.2581176757814	-458.5799255371095	787.7968750000002	-776.388366699219	-474.9175720214845	748.6244506835939	-679.6505126953126	-446.2660522460939	718.1365356445314	-1045.511840820313	-451.4504394531251	732.0471191406251	-842.557067871094	-576.4649047851564	868.0336914062502	-946.7791137695315	-604.8041381835939	853.5487060546877	-973.955505371094	-606.1415405273439	853.8701782226565	-917.8975219726565	-519.0811157226564	617.5235595703126	-1164.98486328125	-436.2110595703126	605.9240112304689	-1184.824462890625	-408.651824951172	642.2588500976564	-1172.450561523438	-408.8743591308595	551.9453125000001	-1195.66064453125	-264.3351745605469	466.0769042968751	-1221.941772460938	-234.8210754394532	436.7344970703126	-1118.467407226563	-281.7146301269532	277.4910278320313	-1189.007690429688	-353.6011047363282	262.9897155761719	-1245.96533203125	-318.3881225585938	246.0813598632813	-1224.176025390625	-344.3930969238282	170.3226318359375	-1195.961669921875	-437.263153076172	101.7158737182617	-1234.718994140625	-396.1742553710939	104.2294921875	-1154.74658203125	-500.8139953613282	54.74868011474611	-1200.469604492188	-283.9422607421876	61.0842628479004	-1177.080810546875	-277.7150268554688	58.51597976684572	-1221.708374023438	-318.2427368164063	34.83153915405274	-1277.50341796875	-466.5830993652345	586.5783691406251	-721.5857543945314	-400.8967285156251	586.2451171875001	-710.0986938476564	-381.0343017578126	612.0207519531251	-715.9702758789064	-353.2747802734376	514.1234130859376	-708.9434204101564	-270.3247070312501	447.8903198242189	-695.1083984375001	-241.1283416748047	429.7129211425782	-804.5895996093752	-282.7486572265626	288.9375000000001	-701.9518432617189	-389.8933410644532	249.2565002441407	-691.6196289062501	-346.7265625000001	230.6596221923829	-693.1291503906251	-344.1329956054688	178.9298095703125	-720.8986206054689	-441.0071105957032	92.72904205322267	-708.4370727539064	-406.4341430664064	102.2607116699219	-787.9260864257815	-502.4266967773439	49.83625411987306	-759.3554687500001	-283.8032226562501	53.24897384643556	-749.1788330078126	-286.5678405761719	57.21092224121095	-697.2713623046876	-333.4390869140626	36.33598709106446	-650.8352661132814	-4216.894042968751	853.1223754882815	-3944.575683593751	
566	2.825	-41.93119049072266	1323.14794921875	-944.5008544921877	-219.6457519531251	1254.331420898438	-1016.719665527344	-197.2968750000001	1259.108154296875	-864.3591308593752	-273.6633605957032	1170.796630859375	-951.1199340820315	-484.1834411621095	949.561950683594	-946.8247070312502	-163.5930938720703	1035.988403320313	-947.5228271484377	-193.3618469238282	1113.388305664063	-1118.215698242188	-309.7059020996094	1043.55908203125	-1263.346801757813	-325.1544494628907	997.643005371094	-1263.169311523438	-359.4928283691407	1020.511169433594	-1307.006469726563	-399.2429809570314	994.622985839844	-1333.376586914063	-470.5787658691407	1013.210021972656	-1276.978881835938	-482.4950561523439	817.2246704101565	-1148.207397460938	-502.3660278320314	768.6057739257815	-1203.189819335938	-456.4230346679689	774.5955810546877	-1109.426391601563	-182.8715515136719	1111.526977539063	-782.3283691406252	-285.6486816406251	1032.191650390625	-602.7362670898439	-275.1026306152344	983.329040527344	-613.1996459960939	-310.0345764160157	974.761901855469	-567.3588256835939	-337.8238830566407	934.9998779296877	-549.5882568359376	-417.6283264160157	974.4575195312502	-582.2486572265626	-484.5951538085939	809.3842773437502	-724.2481689453126	-458.5245971679689	786.101013183594	-776.297546386719	-474.9461364746095	746.7794189453126	-679.6452026367189	-444.9576110839845	718.1600341796876	-1045.631469726563	-451.3031311035157	730.5111083984376	-842.536071777344	-576.2919311523439	866.0322265625002	-946.698181152344	-604.7476806640626	851.5487060546877	-973.829284667969	-607.6368408203126	852.0576171875002	-918.3611450195315	-519.1828002929689	616.2533569335939	-1164.98828125	-436.2538146972657	604.6995849609376	-1184.667602539063	-409.0973205566407	641.1949462890626	-1171.968994140625	-408.5987243652345	551.1223754882814	-1195.19921875	-263.8219299316407	465.7036743164064	-1221.82421875	-233.9241180419922	436.4802551269532	-1118.255004882813	-281.4026794433594	277.2238159179688	-1188.767211914063	-353.2416381835938	262.8797607421876	-1245.7958984375	-318.5613708496094	246.4230346679688	-1224.049194335938	-344.2684020996094	170.0793151855469	-1195.805297851563	-437.2368469238282	101.7403945922852	-1234.613891601563	-396.1113891601564	104.2363052368164	-1154.677368164063	-500.7899475097657	54.7994842529297	-1200.468139648438	-283.9549865722657	60.56212234497072	-1177.253784179688	-277.6971740722657	58.53168869018556	-1221.71337890625	-318.1898193359376	34.82068634033204	-1277.472290039063	-466.2503356933595	585.4527587890626	-721.5975952148439	-400.6628723144532	585.1580810546876	-710.1770629882814	-381.0012207031251	611.1371459960939	-716.0290527343751	-352.7557373046876	513.4469604492189	-708.9907226562501	-269.7669067382813	447.4855346679689	-695.1439208984376	-241.5854644775391	429.3365173339845	-804.2217407226565	-282.3314514160157	288.5526428222657	-701.8930664062501	-389.6080932617189	249.1820373535157	-691.5614013671876	-346.4033203125001	230.5021972656251	-693.0969848632814	-343.8858947753907	178.6641845703125	-720.8785400390626	-440.9480590820314	92.76899719238283	-708.4968872070314	-406.3904113769532	102.2109756469727	-787.9849853515627	-502.5037231445314	49.77149963378908	-759.2897338867189	-283.8059082031251	53.23107147216798	-749.1465454101564	-286.5430908203126	57.18293762207033	-697.2133178710939	-333.4724121093751	36.3918685913086	-650.8834838867189	-4216.779296875001	853.1586914062502	-3944.693603515626	
567	2.83	-40.8277931213379	1320.043334960938	-944.4094238281252	-218.9775390625001	1251.49560546875	-1016.77490234375	-196.4674835205079	1256.494384765625	-864.539733886719	-272.8284301757813	1167.940063476563	-951.0964965820315	-483.9690856933595	947.1409912109377	-946.7505493164065	-163.3510131835938	1033.326782226563	-947.5715942382815	-193.1696929931641	1110.464965820313	-1118.289794921875	-309.4433898925782	1041.44580078125	-1263.333862304688	-324.7169799804688	995.2557373046877	-1263.420288085938	-359.3340148925782	1018.463195800781	-1306.974975585938	-399.0505371093751	992.7368164062502	-1333.455078125	-470.7363586425782	1011.7607421875	-1276.952392578125	-482.607391357422	815.4976806640627	-1148.151123046875	-502.694549560547	766.8291015625001	-1203.083862304688	-456.0785522460939	772.3892822265627	-1109.644775390625	-181.8438110351563	1108.663208007813	-782.6734008789065	-285.0082397460938	1029.556640625	-602.6532592773439	-274.7076721191407	980.5894165039065	-613.1139526367189	-309.3065795898438	972.3222656250002	-567.3102416992189	-337.2181091308594	932.4390869140627	-549.3992309570314	-417.012664794922	972.2825317382815	-581.9703369140626	-484.3903198242189	807.4674072265627	-724.0022583007814	-458.2953491210939	783.9969482421877	-776.1682128906252	-475.0550537109376	744.5819091796876	-679.6241455078126	-444.822723388672	716.0438842773439	-1045.692016601563	-451.0538940429689	728.6835327148439	-842.0772094726565	-575.9714965820314	863.7855224609377	-946.6608886718752	-604.5814819335939	849.4396972656252	-973.708435058594	-607.8188476562501	850.1025390625002	-918.2087402343752	-519.2338256835939	614.7899169921876	-1164.896850585938	-436.2357177734376	603.6447143554689	-1184.527954101563	-409.0514526367189	640.1915893554689	-1171.706298828125	-408.3211669921876	549.9617309570314	-1195.14990234375	-262.9880676269532	465.2281799316407	-1221.5390625	-233.7052917480469	435.5368041992189	-1118.443725585938	-281.0967102050782	277.2920532226563	-1188.484008789063	-353.2262573242188	263.2012634277344	-1245.571166992188	-318.3524780273438	246.1513061523438	-1223.82421875	-344.0778198242188	169.8848724365235	-1195.607543945313	-437.1293029785157	101.7443313598633	-1234.55029296875	-396.0700988769532	104.1539764404297	-1154.596801757813	-500.8652343750001	54.85251235961915	-1200.375366210938	-283.5231628417969	60.80990600585939	-1177.170043945313	-277.6482238769532	58.54578399658205	-1221.722290039063	-318.2080993652344	34.82624435424805	-1277.456665039063	-466.0527954101564	584.2757568359376	-721.6353149414064	-400.609100341797	584.4042968750001	-710.0155639648439	-380.8056335449219	610.3100585937501	-716.2423095703126	-352.0753173828126	512.3383789062501	-708.9600830078126	-269.0805053710938	447.0806884765626	-695.2476196289064	-240.8308563232422	428.8621520996095	-804.4360351562502	-281.7598266601563	288.3244018554688	-702.2013549804689	-389.2912902832032	249.0968475341797	-691.5199584960939	-346.0605773925782	230.3536987304688	-693.1811523437501	-343.6047058105469	178.4238586425782	-721.0052490234376	-440.8933105468751	92.80531311035158	-708.6224975585939	-406.3567504882814	102.1584243774414	-788.0706787109377	-502.4754028320314	49.82637405395509	-759.2885131835939	-283.7994384765626	53.20186233520509	-749.1347656250001	-286.5726318359376	57.21654129028322	-697.2155151367189	-333.4522399902344	36.35632705688477	-650.8491210937501	-4216.883789062501	853.1890869140627	-3944.668701171876	
568	2.835	-40.2706527709961	1317.059448242188	-944.5767211914065	-218.1302795410157	1248.86279296875	-1016.817687988281	-195.5978393554688	1253.664672851563	-864.7233886718752	-272.5455322265626	1165.457153320313	-951.0657348632815	-483.6412048339845	944.958435058594	-946.6704711914065	-162.9841003417969	1030.525756835938	-947.6175537109377	-192.4949493408204	1107.747192382813	-1118.204223632813	-308.9945068359376	1039.138305664063	-1263.467529296875	-324.5265808105469	993.241882324219	-1263.445190429688	-359.1219482421876	1016.432312011719	-1307.073364257813	-399.4859619140626	990.6074829101565	-1333.214965820313	-470.4599914550782	1009.964965820313	-1277.03271484375	-482.7906799316407	813.813415527344	-1148.153930664063	-502.9668273925782	765.1412353515626	-1203.074340820313	-455.9893493652345	770.5062255859377	-1109.687377929688	-181.3219909667969	1105.698486328125	-782.6740722656252	-284.2677001953126	1027.065185546875	-602.6296386718751	-274.3665466308594	978.231872558594	-613.1751098632814	-308.6876525878907	969.8061523437502	-567.2030639648439	-336.6873779296876	930.187194824219	-549.3703002929689	-416.4040832519532	970.1052856445315	-581.8289184570314	-484.4467163085939	805.660339355469	-723.8995361328126	-458.5336914062501	782.2006835937502	-776.1321411132815	-475.1046752929689	742.5886840820314	-679.5606079101564	-445.115692138672	714.4591674804689	-1045.8876953125	-451.1524963378907	726.8717651367189	-842.3618164062502	-576.4276123046876	862.2344970703127	-946.552429199219	-604.7819213867189	847.7214355468752	-973.6231079101565	-607.8007202148439	848.0869140625002	-918.2729492187502	-519.1796875000001	613.2651367187501	-1164.81103515625	-436.2217712402345	602.5373535156251	-1184.315063476563	-409.1135864257814	639.3067626953126	-1171.45654296875	-407.9837646484376	548.9143676757814	-1195.015625	-262.2448730468751	464.8391723632814	-1221.307861328125	-232.8612976074219	435.0936889648439	-1117.873413085938	-280.5493469238282	276.8463439941407	-1188.5205078125	-353.2719726562501	263.1330566406251	-1245.6474609375	-318.0511474609376	245.9286651611329	-1223.697631835938	-343.8097534179688	169.748275756836	-1195.520874023438	-437.1083068847657	101.7993392944336	-1234.479125976563	-396.0012817382814	104.1218643188477	-1154.515502929688	-500.3830566406251	54.40728759765626	-1200.4970703125	-283.4741821289063	60.9033889770508	-1177.176879882813	-277.6191101074219	58.53244018554689	-1221.787353515625	-318.1716308593751	34.81525039672852	-1277.41162109375	-465.8257751464845	583.0704956054689	-721.3555297851564	-400.2756347656251	583.4999389648439	-710.1825561523439	-380.5917663574219	609.3951416015626	-716.4047851562501	-351.6488952636719	511.8265075683595	-708.6090087890626	-268.1901550292969	446.6556396484376	-695.3707885742189	-240.3781127929688	428.3318786621095	-804.430114746094	-281.1436767578126	287.9258728027344	-702.4113769531251	-389.073944091797	249.0087432861329	-691.5690917968751	-345.5472412109376	230.0240936279297	-693.3708496093751	-343.3098754882813	178.2324676513672	-721.1317138671876	-440.8418579101564	92.78040313720705	-708.6384277343751	-406.267791748047	102.0851364135742	-788.1312255859377	-502.4751281738282	49.8301467895508	-759.2858276367189	-283.8072814941407	53.20333099365236	-749.1460571289064	-286.5385742187501	57.15246582031251	-697.2513427734376	-333.4708251953126	36.36503982543946	-650.8607788085939	-4216.776367187501	853.1109008789065	-3944.779052734376	
